<?xml version="1.0" standalone="no"?><!DOCTYPE svg PUBLIC "-//W3C//DTD SVG 1.1//EN" "http://www.w3.org/Graphics/SVG/1.1/DTD/svg11.dtd"><svg t="1587869251998" class="icon" viewBox="0 0 1024 1024" version="1.1" xmlns="http://www.w3.org/2000/svg" p-id="2052" xmlns:xlink="http://www.w3.org/1999/xlink" width="32" height="32"><defs><style type="text/css"></style></defs><path d="M514 509.6m-294.2 0a294.2 294.2 0 1 0 588.4 0 294.2 294.2 0 1 0-588.4 0Z" fill="#FFEE91" p-id="2053"></path><path d="M629.4 79C443.5 29.2 254.5 106 150 255.1l-53.2-14.2c-14.3-3.8-28.9 4.6-32.8 18.9-0.9 3.5-1.2 7.2-0.6 10.8l19 132c0.7 14.8 13.2 26.2 27.9 25.5 10.4-0.5 19.6-6.9 23.5-16.6 0.2-0.5 0.4-1.1 0.6-1.6l1.4-4C193 197.7 406.7 74.7 615.5 130.7c104.8 28.1 188 95.8 238.2 182.8 7.1 12.9 23.4 17.7 36.3 10.5 12.9-7.1 17.7-23.4 10.5-36.3-0.2-0.3-0.4-0.6-0.5-0.9-57-98.9-151.9-176-270.6-207.8zM924.7 591.6c-12.8-2.8-25.7 4-30.6 16.1-0.2 0.5-0.4 1.1-0.6 1.6l-1.4 4C835 821.5 621.3 944.4 412.5 888.5c-104.8-28.1-188-95.8-238.2-182.8-7.1-12.9-23.4-17.7-36.3-10.5-12.9 7.1-17.7 23.4-10.5 36.3 0.2 0.3 0.4 0.6 0.5 0.9 57 98.8 151.9 175.9 270.7 207.7C584.5 990 773.6 913.2 878 764l53.2 14.2c14.3 3.8 28.9-4.6 32.8-18.9 0.9-3.5 1.2-7.2 0.6-10.8l-19-132c-0.5-12-9.1-22.3-20.9-24.9z" fill="#444852" p-id="2054"></path><path d="M688.3 273c37.3 50.5 57.4 111.5 57.5 174.2 0 162.5-131.7 294.2-294.2 294.2-62.7-0.1-123.8-20.3-174.3-57.6 55.3 75.3 143.2 119.9 236.7 120 162.5 0 294.2-131.7 294.2-294.2-0.1-93.5-44.6-181.3-119.9-236.6z" fill="#F9D151" p-id="2055"></path><path d="M514 188.6c-176.9 0-321 144-321 321s144 321 321 321c68.3 0 134.8-21.8 189.9-62.2 12.1-8.5 15-25.2 6.4-37.3-8.5-12.1-25.2-15-37.3-6.4-0.3 0.2-0.5 0.4-0.8 0.6C626.4 758.9 570.9 777 514 777c-148 0-267.5-119.4-267.5-267.5S366 242.1 514 242.1s267.5 119.4 267.5 267.5c0 56.9-18.1 112.4-51.8 158.2-9.1 11.6-7.1 28.4 4.5 37.6 11.6 9.1 28.4 7.1 37.6-4.5 0.4-0.5 0.7-1 1.1-1.4 40.4-55.1 62.2-121.6 62.2-189.9-0.1-177-144.2-321-321.1-321z" fill="#444852" p-id="2056"></path><path d="M513.6 313.4c-14.8 0.2-26.5 12.4-26.3 27.1v10.7c-35.5 8.2-62.4 40.2-62.4 78v26.7c0 44 36.2 80.2 80.2 80.2h17.8c15.3 0 26.7 11.5 26.7 26.7v26.7c0 15.3-11.5 26.7-26.7 26.7h-17.8c-15.3 0-26.7-11.5-26.7-26.7 0.2-14.8-11.6-26.9-26.4-27.1-14.8-0.2-26.9 11.6-27.1 26.4v0.8c0 37.9 26.9 69.8 62.4 78v10.7c-0.2 14.8 11.6 26.9 26.4 27.1 14.8 0.2 26.9-11.6 27.1-26.4v-11.5c35.5-8.2 62.4-40.2 62.4-78v-26.7c0-44-36.2-80.2-80.2-80.2h-17.8c-15.3 0-26.7-11.5-26.7-26.7v-26.7c0-15.3 11.5-26.7 26.7-26.7H523c15.3 0 26.7 11.5 26.7 26.7-0.2 14.8 11.6 26.9 26.4 27.1 14.8 0.2 26.9-11.6 27.1-26.4v-0.8c0-37.9-26.9-69.8-62.4-78v-10.7c0.2-14.8-11.6-26.9-26.4-27.1-0.3 0.1-0.5 0.1-0.8 0.1z" fill="#FFFFFF" p-id="2057"></path></svg>