<?xml version="1.0" standalone="no"?><!DOCTYPE svg PUBLIC "-//W3C//DTD SVG 1.1//EN" "http://www.w3.org/Graphics/SVG/1.1/DTD/svg11.dtd"><svg t="1587869206558" class="icon" viewBox="0 0 1024 1024" version="1.1" xmlns="http://www.w3.org/2000/svg" p-id="1610" xmlns:xlink="http://www.w3.org/1999/xlink" width="32" height="32"><defs><style type="text/css"></style></defs><path d="M95 220.1V789c0 54 43.5 97.5 97.5 97.5H859V317.7H192.6c-54.1 0-97.6-43.5-97.6-97.6z" fill="#91DDFF" p-id="1611"></path><path d="M785.8 317.7v479.5c0 9-7.2 16.3-16.3 16.3H98.2c10.8 42.1 48.8 73.1 94.4 73.1H859V317.7h-73.2z" fill="#52C7FC" p-id="1612"></path><path d="M192.6 122.6c-54 0-97.5 43.5-97.5 97.5s43.5 97.5 97.5 97.5h568.9v-195H192.6z" fill="#D7DFEB" p-id="1613"></path><path d="M688.3 122.6v121.9H192.6c-41.1 0-76-25.2-90.4-61-4.5 11.3-7.1 23.6-7.1 36.6 0 54 43.5 97.5 97.5 97.5h568.9v-195h-73.2z" fill="#B1C1D6" p-id="1614"></path><path d="M623.3 529c-40.5 0-73.1 32.6-73.1 73.1 0 40.5 32.6 73.1 73.1 73.1h284.5c9 0 16.3-7.2 16.3-16.3V545.2c0-9-7.2-16.3-16.3-16.3H623.3z" fill="#FFFFFF" p-id="1615"></path><path d="M850.9 529v146.3h56.9c9 0 16.3-7.2 16.3-16.3V545.2c0-9-7.2-16.3-16.3-16.3h-56.9z" fill="#E5F0F1" p-id="1616"></path><path d="M192.6 98.2c-67.1 0-121.9 54.8-121.9 121.9S125.4 342 192.6 342h642v187c0 13.5 10.9 24.4 24.4 24.4h40.6v97.5H623.3c-27.4 0-48.8-21.3-48.8-48.8s21.3-48.8 48.8-48.8h154.4c13.5 0.2 24.5-10.6 24.7-24s-10.6-24.5-24-24.7H623.3c-53.6 0-97.5 43.9-97.5 97.5s43.9 97.5 97.5 97.5h284.5c22.1 0 40.6-18.5 40.6-40.6V545.2c0-22.1-18.5-40.6-40.6-40.6h-24.4V317.7c0-13.5-10.9-24.4-24.4-24.4H192.6c-40.9 0-73.1-32.2-73.1-73.1s32.2-73.1 73.1-73.1h544.5v89.4c-0.2 13.5 10.6 24.5 24 24.7 13.5 0.2 24.5-10.6 24.7-24V122.6c0-13.5-10.9-24.4-24.4-24.4H192.6z" fill="#444852" p-id="1617"></path><path d="M94.6 341.7c-13.5 0.2-24.2 11.3-24 24.7V789c0 67.1 54.8 121.9 121.9 121.9H859c13.5 0 24.4-10.9 24.4-24.4v-130c0.2-13.5-10.6-24.5-24-24.7s-24.5 10.6-24.7 24v106.4h-642c-40.9 0-73.1-32.2-73.1-73.1V366.4c0.2-13.5-10.6-24.5-24-24.7h-1z" fill="#444852" p-id="1618"></path></svg>